<svg xmlns="http://www.w3.org/2000/svg" width="25" height="24" viewBox="0 0 25 24" fill="none">
    <path fill-rule="evenodd" clip-rule="evenodd" d="M12.333 4C10.123 4 8.33301 5.79 8.33301 8C8.33301 10.21 10.123 12 12.333 12C14.543 12 16.333 10.21 16.333 8C16.333 5.79 14.543 4 12.333 4ZM14.333 8C14.333 6.9 13.433 6 12.333 6C11.233 6 10.333 6.9 10.333 8C10.333 9.1 11.233 10 12.333 10C13.433 10 14.333 9.1 14.333 8ZM18.333 17C18.133 16.29 15.033 15 12.333 15C9.63301 15 6.53301 16.29 6.33301 17.01V18H18.333V17ZM4.33301 17C4.33301 14.34 9.66301 13 12.333 13C15.003 13 20.333 14.34 20.333 17V20H4.33301V17Z" fill="#CCC6BD"/>
</svg>